<?xml version="1.0" encoding="utf-8"?>
<!-- Generator: Adobe Illustrator 22.1.0, SVG Export Plug-In . SVG Version: 6.00 Build 0)  -->
<svg version="1.1" id="图层_1" xmlns="http://www.w3.org/2000/svg" xmlns:xlink="http://www.w3.org/1999/xlink" x="0px" y="0px"
	 viewBox="0 0 2000 600" style="enable-background:new 0 0 2000 600;" xml:space="preserve">
<style type="text/css">
	.st0{fill:#2E3192;}
	.st1{fill:#00FFFF;}
</style>
<path class="st0" d="M424.1,239.2c0,3.1,0,5.6,0,8.1c0,39.7-0.2,79.5,0,119.2c0,8.2-2.4,14.2-8.4,18.9
	C402.1,396,388.6,407,375,417.7c-11.8,9.3-23.6,18.5-35.5,27.7c-1.9,1.4-3.9,2.6-5.6,4.2c-5.1,4.8-11,5.9-17.5,5.8
	c-35.7-0.3-71.4-0.3-107.1-0.6c-4.8,0-8.7,1.4-12.6,4.3c-11.2,8.5-22.5,16.9-33.7,25.4c-1.4,1-2.9,1.8-4.9,3c-0.5-2-0.8-3.2-1-4.5
	c-0.1-0.6,0-1.2,0-1.8c-0.1-29.4-0.2-58.7-0.3-88.1c0-1.6,0-3.1,0.1-4.7c0.4-8.1,3.9-12.9,11.1-14.4c2.2-0.5,4.5-0.5,6.7-0.5
	c36.2,0,72.5,0,108.7,0.2c4.6,0,8.5-1.2,12.2-4c7.7-6,15.2-12.2,23.1-18c3.7-2.8,5.1-6,5.1-11.1c-0.2-28.4-0.1-56.8-0.1-85.1
	c0-10.8,5-16.9,14.6-16.9c27.2-0.2,54.4-0.1,81.6-0.1C421,238.5,422.1,238.9,424.1,239.2z"/>
<path class="st1" d="M23.5,217.2c0-21-0.1-40.9,0-60.8c0-5.9,2.2-10.9,6.1-15c7.2-7.4,15.8-10.3,25.3-10.3
	c20.8,0.1,41.6,0.4,62.4,0.4c11.2,0,22.5-0.4,33.7-0.4c34.3,0,68.6,0,102.9,0c6.1,0,12.1-0.1,18.2,0c4.4,0.1,4.8,0.6,4.8,5.4
	c0,17-0.1,34-0.2,51.1c0,4.9,0.1,9.8,0.2,14.7c0.1,6.7-2.9,11.3-8.3,13.4c-3.4,1.3-7.1,1.8-10.7,1.8c-44.4,0.1-88.7,0.1-133.1,0.1
	c-31.4,0-62.7,0.1-94.1,0.1C28.4,217.6,26,217.4,23.5,217.2z"/>
<path class="st1" d="M124.3,467.3c-3.6-2.5-6.6-4.5-9.4-6.6c-26.7-20.4-53.3-40.8-80-61.2c-12.4-9.5-12.2-9.5-12-26.4
	c0.3-23.9,0.4-47.7,0.5-71.6c0.1-19.1,0-38.3,0-58.2c1.8-0.2,3.6-0.5,5.4-0.5c12.7,0,25.3,0,38,0c35.7,0,71.4,0,107.1,0
	c2.4,0,4.9,0.1,7.2,0.9c4.6,1.6,5.4,5.4,2.2,9.3c-1.6,2-3.6,3.7-5.6,5.2c-14.7,11.8-29.2,23.9-44.2,35.1c-6.3,4.7-8.4,10.4-8.4,18.5
	c0,50.1-0.2,100.2-0.3,150.3C124.6,463.4,124.5,464.7,124.3,467.3z"/>
<path class="st1" d="M423.1,216.5c-2,0-4.1,0-6.1,0c-22,0-44,0-66,0.1c-8,0-15.9,0.4-23.9,0.2c-3.9-0.1-8-0.8-11.7-2.1
	c-5.5-1.9-7.5-5.1-7.5-11.6c-0.1-23.4,0-46.9,0-70.3c0-0.8,0.2-1.5,0.4-3.2c1.9,1,3.7,1.6,5.2,2.6c9.2,6.6,18.4,13.1,27.5,19.9
	c25.8,19.2,51.6,38.6,77.4,57.9c1.8,1.4,3.4,3.1,5.1,4.7C423.4,215.4,423.2,216,423.1,216.5z"/>
<path class="st1" d="M264.9,334.9H211c-6.6,0-12-5.4-12-12v-64c0-6.6,5.4-12,12-12h53.9c6.6,0,12,5.4,12,12v64
	C276.9,329.5,271.5,334.9,264.9,334.9z"/>
<g>
	<g>
		<path d="M492.4,192h83.5c59.6,0,90,17.8,90,58v13.4c0,37.5-22.1,62.5-93.3,62.5h-22.4v93.5h-57.9V192z M550.3,297.2h15.9
			c36.1,0,42.3-12.8,42.3-35v-11.2c0-16.5-5-30.2-37.1-30.2h-21V297.2z"/>
		<path d="M875.6,252.3v106.2c0,43.6-30.5,64.2-94.1,64.2c-61,0-88.5-21.1-88.5-63.6V252c0-43.5,36.2-63.4,92.2-63.4
			C842.1,188.6,875.6,208.6,875.6,252.3z M751.9,248.9v114.4c0,18.9,11.3,27.8,32.1,27.8c22.5,0,32.6-8.3,32.6-28.3V248.6
			c0-18-9.1-28-32.6-28C763.2,220.6,751.9,229.6,751.9,248.9z"/>
		<path d="M950.1,419.3L898.7,192h61.6c8.7,49.1,20.2,124.5,23.1,167.4h1.1c8.6-48.1,24.3-117.6,35-167.4h56.3
			c11.2,51.5,26.8,115.7,34.4,165.9h1.2c4.4-44.4,15.4-114.3,24.1-165.9h58.5l-55.5,227.4h-59.1c-10.6-51-25.3-111.6-33.3-158.4
			h-1.1c-8.7,47.8-25.1,109.4-36.3,158.4H950.1z"/>
		<path d="M1364.8,315.5h-82.5v71.6h95.1l-7.3,32.2h-145.7V192h145v32.5h-87.1v58.7h82.5V315.5z"/>
		<path d="M1465.3,317.7v101.7h-57.9V192h80.2c57.1,0,90.9,13.9,90.9,54.8v8.7c0,34.9-23.7,43.8-38.2,47.4
			c21.9,6.2,34.4,15.8,34.4,46.6c0,19.1-0.6,56.1,3.4,69.9h-55.9c-5-13.7-3.9-51.1-3.9-67.6c0-27.7-5.9-34.1-39.5-34.1H1465.3z
			 M1465.3,288.7h13.3c30.6,0,41.9-7,41.9-31.7v-7.8c0-17.6-6-28.3-38.8-28.3h-16.4V288.7z"/>
		<path d="M1618.2,192h146.3v32.5h-88.4v59.8h84.2v32.5h-84.2v102.5h-57.9V192z"/>
		<path d="M1836.3,352.4v14.1c0,16.9,8.4,26.3,30.4,26.3c22.6,0,28.4-12.9,28.4-27.7c0-24.4-8.7-32-49-51.3
			c-40.4-19.3-62-31.7-62-65.3c0-30,15-60.2,82.7-60.2c69.3,0,80,30,80,54.6v12.1h-57.4v-11.2c0-15.8-4.4-25.4-23.6-25.4
			c-18.8,0-23.8,9.9-23.8,25c0,16.1,5,23.9,38,38.6c56.2,25.2,73.4,39.8,73.4,77.8c0,32.3-18.7,62.8-88.7,62.8
			c-69.5,0-86.4-26.8-86.4-56.7v-13.5H1836.3z"/>
	</g>
</g>
</svg>
