<?xml version="1.0" encoding="utf-8"?>
<!-- Generator: Adobe Illustrator 22.1.0, SVG Export Plug-In . SVG Version: 6.00 Build 0)  -->
<svg version="1.1" id="图层_1" xmlns="http://www.w3.org/2000/svg" xmlns:xlink="http://www.w3.org/1999/xlink" x="0px" y="0px"
	 viewBox="0 0 442.4 422.5" style="enable-background:new 0 0 442.4 422.5;" xml:space="preserve">
<style type="text/css">
	.st0{fill:#2E3192;}
	.st1{fill:#00FFFF;}
</style>
<path class="st0" d="M442.4,129.3c0,3.6,0,6.6,0,9.6c0,46.9-0.2,93.8,0,140.7c0,9.7-2.7,16.8-9.2,22.3c-15.1,12.6-29.9,25.6-45,38.3
	c-13,11-26,21.8-39.1,32.7c-2,1.7-4.3,3.1-6.2,5c-5.6,5.7-12.1,6.9-19.3,6.9c-39.4-0.4-78.7-0.4-118.1-0.8
	c-5.2-0.1-9.6,1.6-13.9,5.1c-12.3,10.1-24.8,20-37.2,29.9c-1.5,1.2-3.2,2.1-5.4,3.6c-0.5-2.4-0.9-3.8-1.1-5.3c-0.1-0.7,0-1.4,0-2.1
	c-0.1-34.7-0.2-69.3-0.3-104c0-1.8,0-3.7,0.1-5.5c0.4-9.6,4.4-15.2,12.2-17c2.4-0.5,4.9-0.6,7.4-0.6c39.9,0,79.9,0,119.8,0.2
	c5,0,9.4-1.4,13.4-4.8c8.5-7.1,16.8-14.4,25.4-21.3c4.1-3.3,5.6-7.1,5.6-13.1c-0.2-33.5-0.1-67-0.1-100.5c0-12.8,5.5-19.9,16.1-20
	c30-0.2,60-0.1,90-0.1C438.9,128.6,440.2,128.9,442.4,129.3z"/>
<path class="st1" d="M0.7,103.4c0-24.8-0.1-48.3,0-71.8c0-7,2.4-12.9,6.8-17.7C15.4,5.1,24.9,1.6,35.4,1.7
	c22.9,0.1,45.8,0.4,68.8,0.5c12.4,0,24.8-0.4,37.2-0.5c37.8-0.1,75.6,0,113.5,0c6.7,0,13.4-0.1,20,0c4.8,0.1,5.3,0.7,5.3,6.4
	c0,20.1-0.1,40.2-0.2,60.3c0,5.8,0.1,11.5,0.2,17.3c0.1,8-3.2,13.3-9.1,15.8c-3.7,1.5-7.8,2.2-11.8,2.2
	c-48.9,0.1-97.8,0.1-146.7,0.1c-34.6,0-69.2,0.1-103.7,0.1C6.2,103.9,3.6,103.6,0.7,103.4z"/>
<path class="st1" d="M111.9,398.7c-4-3-7.3-5.3-10.4-7.8c-29.4-24.1-58.8-48.2-88.2-72.3c-13.7-11.3-13.5-11.3-13.2-31.2
	c0.4-28.2,0.4-56.4,0.5-84.5c0.1-22.6,0-45.2,0-68.8c2-0.2,4-0.6,5.9-0.6c14-0.1,27.9,0,41.9,0c39.4,0,78.7,0,118.1,0
	c2.6,0,5.4,0.2,7.9,1.1c5,1.9,6,6.4,2.4,11c-1.8,2.3-4,4.3-6.1,6.2c-16.2,13.9-32.1,28.3-48.7,41.5c-7,5.6-9.3,12.3-9.3,21.8
	c0,59.1-0.2,118.3-0.4,177.4C112.2,394,112.1,395.6,111.9,398.7z"/>
<path class="st1" d="M441.2,102.6c-2.2,0-4.5,0-6.7,0c-24.2,0-48.5,0.1-72.7,0.1c-8.8,0-17.6,0.5-26.3,0.2c-4.3-0.1-8.8-1-12.9-2.5
	c-6.1-2.2-8.3-6.1-8.3-13.7c-0.1-27.7,0-55.4,0-83.1c0-0.9,0.2-1.8,0.5-3.7c2.1,1.1,4,1.9,5.7,3.1c10.2,7.8,20.3,15.5,30.3,23.5
	c28.5,22.7,56.9,45.6,85.3,68.4c2,1.6,3.8,3.7,5.6,5.5C441.6,101.2,441.4,101.9,441.2,102.6z"/>
<path class="st1" d="M268.2,242.3h-61.9c-6.6,0-12-5.4-12-12v-79.9c0-6.6,5.4-12,12-12h61.9c6.6,0,12,5.4,12,12v79.9
	C280.2,236.9,274.8,242.3,268.2,242.3z"/>
</svg>
