<?xml version="1.0" encoding="utf-8"?>
<!-- Generator: Adobe Illustrator 22.1.0, SVG Export Plug-In . SVG Version: 6.00 Build 0)  -->
<svg version="1.1" id="图层_1" xmlns="http://www.w3.org/2000/svg" xmlns:xlink="http://www.w3.org/1999/xlink" x="0px" y="0px"
	 viewBox="0 0 2000 600" style="enable-background:new 0 0 2000 600;" xml:space="preserve">
<style type="text/css">
	.st0{fill:#2E3192;}
	.st1{fill:#00FFFF;}
</style>
<path class="st0" d="M466.6,217.2c0,3.6,0,6.6,0,9.6c0,46.9-0.2,93.8,0,140.7c0,9.7-2.7,16.8-9.2,22.3c-15.1,12.6-29.9,25.6-45,38.3
	c-13,11-26,21.8-39.1,32.7c-2,1.7-4.3,3.1-6.2,5c-5.6,5.7-12.1,6.9-19.3,6.9c-39.4-0.4-78.7-0.4-118.1-0.8
	c-5.2-0.1-9.6,1.6-13.9,5.1c-12.3,10.1-24.8,20-37.2,29.9c-1.5,1.2-3.2,2.1-5.4,3.6c-0.5-2.4-0.9-3.8-1.1-5.3c-0.1-0.7,0-1.4,0-2.1
	c-0.1-34.7-0.2-69.3-0.3-104c0-1.8,0-3.7,0.1-5.5c0.4-9.6,4.4-15.2,12.2-17c2.4-0.5,4.9-0.6,7.4-0.6c39.9,0,79.9,0,119.8,0.2
	c5,0,9.4-1.4,13.4-4.8c8.5-7.1,16.8-14.4,25.4-21.3c4.1-3.3,5.6-7.1,5.6-13.1c-0.2-33.5-0.1-67-0.1-100.5c0-12.8,5.5-19.9,16.1-20
	c30-0.2,60-0.1,90-0.1C463.1,216.4,464.4,216.8,466.6,217.2z"/>
<path class="st1" d="M24.9,191.2c0-24.8-0.1-48.3,0-71.8c0-7,2.4-12.9,6.8-17.7c7.9-8.8,17.4-12.2,27.9-12.2
	c22.9,0.1,45.8,0.4,68.8,0.5c12.4,0,24.8-0.4,37.2-0.5c37.8-0.1,75.6,0,113.5,0c6.7,0,13.4-0.1,20,0c4.8,0.1,5.3,0.7,5.3,6.4
	c0,20.1-0.1,40.2-0.2,60.3c0,5.8,0.1,11.5,0.2,17.3c0.1,8-3.2,13.3-9.1,15.8c-3.7,1.5-7.8,2.2-11.8,2.2
	c-48.9,0.1-97.8,0.1-146.7,0.1c-34.6,0-69.2,0.1-103.7,0.1C30.4,191.7,27.8,191.4,24.9,191.2z"/>
<path class="st1" d="M136.1,486.5c-4-3-7.3-5.3-10.4-7.8c-29.4-24.1-58.8-48.2-88.2-72.3c-13.7-11.3-13.5-11.3-13.2-31.2
	c0.4-28.2,0.4-56.4,0.5-84.5c0.1-22.6,0-45.2,0-68.8c2-0.2,4-0.6,5.9-0.6c14-0.1,27.9,0,41.9,0c39.4,0,78.7,0,118.1,0
	c2.6,0,5.4,0.2,7.9,1.1c5,1.9,6,6.4,2.4,11c-1.8,2.3-4,4.3-6.1,6.2c-16.2,13.9-32.1,28.3-48.7,41.5c-7,5.6-9.3,12.3-9.3,21.8
	c0,59.1-0.2,118.3-0.4,177.4C136.4,481.9,136.3,483.5,136.1,486.5z"/>
<path class="st1" d="M465.4,190.4c-2.2,0-4.5,0-6.7,0c-24.2,0-48.5,0.1-72.7,0.1c-8.8,0-17.6,0.5-26.3,0.2c-4.3-0.1-8.8-1-12.9-2.5
	c-6.1-2.2-8.3-6.1-8.3-13.7c-0.1-27.7,0-55.4,0-83.1c0-0.9,0.2-1.8,0.5-3.7c2.1,1.1,4,1.9,5.7,3.1c10.2,7.8,20.3,15.5,30.3,23.5
	c28.5,22.7,56.9,45.6,85.3,68.4c2,1.6,3.8,3.7,5.6,5.5C465.8,189.1,465.6,189.8,465.4,190.4z"/>
<path class="st1" d="M292.4,330.2h-61.9c-6.6,0-12-5.4-12-12v-79.9c0-6.6,5.4-12,12-12h61.9c6.6,0,12,5.4,12,12v79.9
	C304.4,324.8,299,330.2,292.4,330.2z"/>
<g>
	<g>
		<path d="M537.7,201.1h78.4c56,0,84.6,17.9,84.6,58.4V273c0,37.8-20.8,62.8-87.6,62.8h-21v94h-54.4V201.1z M592.1,307H607
			c33.9,0,39.7-12.8,39.7-35.2v-11.2c0-16.6-4.7-30.3-34.9-30.3h-19.7V307z"/>
		<path d="M897.7,261.9v106.8c0,43.8-28.7,64.6-88.4,64.6c-57.3,0-83.1-21.3-83.1-64V261.6c0-43.8,34-63.8,86.6-63.8
			C866.2,197.8,897.7,217.8,897.7,261.9z M781.5,258.4v115.1c0,19,10.6,27.9,30.2,27.9c21.1,0,30.6-8.3,30.6-28.4V258.1
			c0-18.2-8.6-28.2-30.7-28.2C792,229.9,781.5,239,781.5,258.4z"/>
		<path d="M967.6,429.9l-48.3-228.7h57.8c8.1,49.4,19,125.3,21.7,168.5h1c8.1-48.4,22.8-118.3,32.8-168.5h52.9
			c10.5,51.8,25.1,116.4,32.3,166.9h1.1c4.2-44.7,14.5-115,22.6-166.9h55l-52.1,228.7h-55.5c-9.9-51.3-23.8-112.3-31.3-159.4h-1
			c-8.2,48.1-23.6,110.1-34.1,159.4H967.6z"/>
		<path d="M1357.2,325.4h-77.5v72h89.3l-6.9,32.4h-136.9V201.1h136.2v32.7h-81.8V293h77.5V325.4z"/>
		<path d="M1451.6,327.6v102.3h-54.4V201.1h75.3c53.7,0,85.3,13.9,85.3,55.1v8.7c0,35.2-22.2,44.1-35.9,47.7
			c20.6,6.3,32.3,15.9,32.3,46.9c0,19.3-0.5,56.4,3.2,70.3H1505c-4.7-13.8-3.7-51.4-3.7-68c0-27.9-5.5-34.3-37.1-34.3H1451.6z
			 M1451.6,298.5h12.5c28.8,0,39.4-7,39.4-31.9v-7.8c0-17.7-5.6-28.4-36.5-28.4h-15.4V298.5z"/>
		<path class="st1" d="M1599.3,161.4h161.2v38.4h-97.4v70.6h92.8v38.4h-92.8v121h-63.8V161.4z"/>
		<path class="st1" d="M1839.7,350.9v16.6c0,20,9.2,31.1,33.5,31.1c24.9,0,31.3-15.3,31.3-32.7c0-28.9-9.6-37.8-54-60.5
			c-44.5-22.8-68.3-37.4-68.3-77.1c0-35.4,16.5-71.1,91.2-71c76.4,0,88.2,35.4,88.2,64.5V236h-63.3v-13.2c0-18.7-4.9-30-26.1-30
			c-20.7,0-26.2,11.7-26.2,29.5c0,19,5.6,28.3,41.9,45.5c61.9,29.7,80.9,47,80.9,91.9c0,38.1-20.6,74.2-97.8,74.2
			c-76.6,0-95.2-31.6-95.2-67v-15.9H1839.7z"/>
	</g>
</g>
</svg>
